<?xml version="1.0" encoding="utf-8"?>
<!-- Generator: Adobe Illustrator 24.0.2, SVG Export Plug-In . SVG Version: 6.00 Build 0)  -->
<svg version="1.1" id="logo" xmlns="http://www.w3.org/2000/svg" xmlns:xlink="http://www.w3.org/1999/xlink" x="0px" y="0px"
	 viewBox="0 0 256 68.2" style="enable-background:new 0 0 256 68.2;" xml:space="preserve">
<g>
	<path d="M0,5.2c3.6,0,7.3,0,7.4,0c3.3,0,7.7,1.7,7.7,6.9c0,2.7-1.5,4.5-3.2,5.6c2.8,0.8,4.9,3.3,4.9,6.6c0,4.8-3.9,7.8-8.9,7.8
		c-1,0-3.8-0.1-7.9,0C0.1,23,0.1,14.1,0,5.2z M4.9,17.1c2.6,0,7.6-0.2,7.6-5c0-3.7-3-4.7-6.5-4.7H2.6v9.7H4.9z M4.4,19.2H2.6v10.3
		c1.6,0,3.8,0,4.4,0c4.5,0,7.2-2,7.2-5.3c0-4.2-4.3-5-8.2-5.1C5.4,19.2,4.9,19.2,4.4,19.2z"/>
	<path d="M38.8,11.5L20.1,32.2v-27c0.9,0.1,1.8-0.1,2.6-0.1v20.1L41.5,4.8v27c-0.9-0.1-1.8,0.2-2.6,0.2V11.5z"/>
	<path d="M62.6,14.6c0,5.9-4.8,10.2-13.8,8.5l0.1,8.7c-0.9-0.1-1.8,0-2.6,0.1c0.1-8.9,0.1-17.9,0-26.8c0.9,0,6-0.1,8.2-0.1
		C59.6,5,62.6,9.6,62.6,14.6z M59.9,14.6c0-3.8-1.8-7.2-6.1-7.2c-1.7,0-3.4,0-5,0.1l-0.1,13.1C56.4,22.2,59.9,19.2,59.9,14.6z"/>
	<path d="M73.1,7.7L64,7.8c0.4-0.8,0.7-1.7,0.9-2.5c6.8,0.1,13.5,0.1,20.3,0c-0.4,0.8-0.7,1.7-0.9,2.5l-8.6-0.1
		c-0.1,7.8-0.1,15.7,0,23.4c-0.9,0.2-1.8,0.4-2.6,0.8C73.2,23.9,73.2,15.7,73.1,7.7z"/>
	<path d="M99.9,27.8c-1.6,3.2-3.1,4.2-5.1,4.2h-3.3c0.3-0.8,0.4-1.6,0.5-2.5h1.2h1.4c1.2,0,2.4-1.1,2.5-2L87,6l2.5-0.9l9.4,19.5
		l9.5-19.5l2.5,0.9L99.9,27.8z"/>
	<path d="M115,32c-0.8-0.4-1.6-0.7-2.5-0.9c3.9-8.6,7.7-17.2,11.5-25.9c4.2,8.7,8.4,17.4,12.7,25.9c-0.8,0.2-1.6,0.5-2.5,0.9
		l-3.8-7.7c-4-0.1-8.1-0.1-12.1,0L115,32z M124.1,10.9c-1.4,3.6-2.9,7.2-4.5,10.8c3.3,0.1,6.5,0.1,9.7,0
		C127.5,18.1,125.8,14.5,124.1,10.9z"/>
	<path d="M162,31.7c-0.9,0-1.8,0.1-2.6,0.3l0.1-24.4c-3.8-0.1-7.7-0.1-12.2,0l0,17.8c0,5.4-2,7.5-7.1,6.1c0.2-0.8,0.3-1.5,0.3-2.3
		c3.4,0.7,4.3,0.7,4.3-3.8v-4.4c0-5.6,0-8.7,0-15.8c6.3,0.1,11.8,0.1,17.4,0C161.8,13.8,161.8,23,162,31.7z"/>
	<path d="M182.7,24.7c0,5-2.9,7.3-8.3,7.3c-2.1,0-7.3-0.1-8.2-0.1c0.1-7.7,0.1-15.2,0-26.4v0c0.9,0,1.8-0.1,2.6-0.4L168.8,17
		c2.1,0,4,0,5.6,0C179.8,17.1,182.7,20.2,182.7,24.7z M180,24.7c0-3.3-1.8-5.2-5.6-5.2c-1.6,0-3.4,0-5.6-0.1l0.1,10.1
		c1.7,0.1,3.4,0.1,5,0.1C178.3,29.7,180,28.6,180,24.7z"/>
	<path d="M189.3,31.7c-0.9,0-1.8,0.1-2.6,0.3c0.1-8.7,0.1-17.9,0-26.5c0.9,0,1.8-0.1,2.6-0.3l-0.1,14.3c4.5,0.1,9.2,0.1,13.7,0
		l-0.1-14c0.9,0,1.8-0.1,2.6-0.3c-0.1,8.7-0.1,17.9,0,26.6c-0.9,0-1.8,0.1-2.6,0.3l0.1-10.1c-4.5-0.1-9.2-0.1-13.7,0L189.3,31.7z"/>
	<path d="M225.8,24.7c0,5-2.9,7.3-8.3,7.3c-2.1,0-7.3-0.1-8.2-0.1c0.1-7.7,0.1-15.2,0-26.4v0c0.9,0,1.8-0.1,2.6-0.4L211.9,17
		c2.1,0,4,0,5.6,0C223,17.1,225.8,20.2,225.8,24.7z M223.2,24.7c0-3.3-1.8-5.2-5.6-5.2c-1.6,0-3.4,0-5.6-0.1l0.1,10.1
		c1.7,0.1,3.4,0.1,5,0.1C221.4,29.7,223.2,28.6,223.2,24.7z M230.3,31.8c-0.9-0.1-1.8,0-2.6,0.1c0.1-8.9,0.1-17.8,0-26.7
		c0.9,0,1.8,0,2.6-0.2C230.2,14,230.2,22.9,230.3,31.8z"/>
	<path d="M256,4.8v27c-0.9-0.1-1.8,0.2-2.6,0.2V11.5l-18.7,20.8v-27c0.9,0.1,1.8-0.1,2.6-0.1v20.1L256,4.8z M240.1,1.9l1.1-1.9
		c1.3,1.1,3.3,1.9,4.7,1.9c1.4,0,3.4-0.8,4.7-1.9l1.1,1.9c-1.5,1.4-3.7,2.2-5.7,2.2h-0.1C243.9,4.1,241.7,3.3,240.1,1.9z"/>
</g>
<g id="Слой_2">
	<path d="M58.6,60.5c0.6,0.6,1.3,1.3,1.9,1.8c-1.9,3.6-6.4,5.9-10.4,5.9c-6.4,0-13-6-13-13.7c0-7.7,6.6-13.6,13-13.6
		c4,0,8.7,2.3,10.5,5.9c-0.8,0.4-1.6,0.8-2.3,1.1c-1.7-3.3-5.9-4.6-8.2-4.6c-3.4,0-10.4,3.1-10.4,11.2c0,8,6.9,11.1,10.4,11.1
		C52.6,65.6,57,64.1,58.6,60.5z"/>
	<path d="M75.3,65.5l9.1-0.1c-0.4,0.8-0.7,1.7-0.9,2.5c-6.8-0.1-13.5-0.1-20.3,0c0.4-0.8,0.7-1.7,0.9-2.5l8.6,0.1
		c0.1-7.8,0.1-15.7,0-23.4c0.9-0.2,1.8-0.4,2.6-0.8C75.2,49.3,75.2,57.5,75.3,65.5z"/>
	<path d="M106.4,47.5L87.6,68.2v-27c0.9,0.1,1.8-0.1,2.6-0.1v20.1L109,40.7v27c-0.9-0.1-1.8,0.2-2.6,0.2V47.5z"/>
	<path d="M135.2,67.7c-0.9,0-1.8,0.1-2.6,0.3l0.1-24.4c-3.8-0.1-7.7-0.1-12.2,0l0,17.8c0,5.4-2,7.6-7.1,6.1c0.2-0.8,0.3-1.5,0.3-2.3
		c3.4,0.7,4.3,0.7,4.3-3.8v-4.4c0-5.6,0-8.7,0-15.8c6.3,0.1,11.8,0.1,17.4,0C135.1,49.8,135.1,59,135.2,67.7z"/>
	<path d="M158.3,47.5l-18.7,20.8v-27c0.9,0.1,1.8-0.1,2.6-0.1v20.1l18.7-20.4v27c-0.9-0.1-1.8,0.2-2.6,0.2V47.5z"/>
	<path d="M186,60.5c0.6,0.6,1.3,1.3,1.9,1.8c-1.9,3.6-6.4,5.9-10.4,5.9c-6.4,0-13-6-13-13.7c0-7.7,6.6-13.6,13-13.6
		c4,0,8.7,2.3,10.5,5.9c-0.8,0.4-1.6,0.8-2.3,1.1c-1.7-3.3-5.9-4.6-8.2-4.6c-3.4,0-10.4,3.1-10.4,11.2c0,8,6.9,11.1,10.4,11.1
		C180,65.6,184.4,64.1,186,60.5z"/>
	<path d="M199.7,43.7l-9.1,0.1c0.4-0.8,0.7-1.7,0.9-2.5c6.8,0.1,13.5,0.1,20.3,0c-0.4,0.8-0.7,1.7-0.9,2.5l-8.6-0.1
		c-0.1,7.8-0.1,15.7,0,23.4c-0.9,0.2-1.8,0.4-2.6,0.8C199.8,59.9,199.8,51.7,199.7,43.7z"/>
</g>
</svg>
